<svg data-v-29081953="" xmlns="http://www.w3.org/2000/svg" viewBox="0 0 300 300"><!----><defs data-v-29081953=""><!----></defs><rect data-v-29081953="" fill="transparent" x="0" y="0" width="300px" height="300px" class="logo-background-square"></rect><defs data-v-29081953=""><!----></defs><g data-v-29081953="" id="cabc993e-abbd-426c-ae61-8b97e4931955" fill="#000000" transform="matrix(2.60201093308362,0,0,2.60201093308362,97.92073861220435,128.68953092952464)"><path d="M6.50 3.78L9.76 3.78L9.76 13.02L6.50 13.02L6.50 9.58L3.96 9.58L3.96 13.02L0.70 13.02L0.70 3.78L3.96 3.78L3.96 7.18L6.50 7.18L6.50 3.78ZM12.60 10.14L12.60 10.14Q13.43 10.14 13.87 10.53L13.87 10.53L13.87 10.53Q14.32 10.92 14.32 11.63L14.32 11.63L14.32 11.63Q14.32 12.35 13.87 12.74L13.87 12.74L13.87 12.74Q13.43 13.13 12.60 13.13L12.60 13.13L12.60 13.13Q11.77 13.13 11.33 12.74L11.33 12.74L11.33 12.74Q10.88 12.35 10.88 11.63L10.88 11.63L10.88 11.63Q10.88 10.92 11.33 10.53L11.33 10.53L11.33 10.53Q11.77 10.14 12.60 10.14L12.60 10.14ZM27.31 3.78L27.31 13.02L24.47 13.02L24.47 9.81L24.51 6.71L24.47 6.71L22.68 13.02L20.08 13.02L18.31 6.71L18.26 6.71L18.30 9.81L18.30 13.02L15.44 13.02L15.44 3.78L20.01 3.78L21.07 7.88L21.48 9.60L21.50 9.60L21.91 7.88L22.97 3.78L27.31 3.78ZM36.02 11.30L36.02 11.30Q36.26 11.30 36.37 11.24L36.37 11.24L36.12 12.88L36.12 12.88Q35.64 13.16 35.08 13.16L35.08 13.16L35.08 13.16Q34.23 13.16 33.66 12.86L33.66 12.86L33.66 12.86Q33.08 12.56 32.89 11.98L32.89 11.98L32.89 11.98Q32.56 12.53 31.94 12.84L31.94 12.84L31.94 12.84Q31.32 13.16 30.39 13.16L30.39 13.16L30.39 13.16Q29.30 13.16 28.77 12.73L28.77 12.73L28.77 12.73Q28.24 12.31 28.24 11.49L28.24 11.49L28.24 11.49Q28.24 10.61 28.87 10.09L28.87 10.09L28.87 10.09Q29.50 9.56 30.97 9.24L30.97 9.24L32.35 8.93L32.35 8.65L32.35 8.65Q32.35 8.33 32.19 8.15L32.19 8.15L32.19 8.15Q32.03 7.97 31.72 7.97L31.72 7.97L31.72 7.97Q31.39 7.97 31.19 8.15L31.19 8.15L31.19 8.15Q31.00 8.34 30.98 8.82L30.98 8.82L28.32 8.41L28.32 8.41Q28.43 7.21 29.33 6.54L29.33 6.54L29.33 6.54Q30.23 5.88 31.91 5.88L31.91 5.88L31.91 5.88Q33.77 5.88 34.66 6.59L34.66 6.59L34.66 6.59Q35.55 7.31 35.55 8.76L35.55 8.76L35.55 10.72L35.55 10.72Q35.55 11.30 36.02 11.30L36.02 11.30ZM31.75 11.41L31.75 11.41Q32.02 11.41 32.19 11.23L32.19 11.23L32.19 11.23Q32.35 11.06 32.35 10.72L32.35 10.72L32.35 10.05L31.89 10.19L31.89 10.19Q31.60 10.28 31.43 10.46L31.43 10.46L31.43 10.46Q31.26 10.65 31.26 10.92L31.26 10.92L31.26 10.92Q31.26 11.16 31.40 11.28L31.40 11.28L31.40 11.28Q31.54 11.41 31.75 11.41L31.75 11.41ZM49.24 6.02L47.33 13.02L43.33 13.02L42.83 10.86L42.55 9.16L42.49 9.16L42.22 10.85L41.71 13.02L37.70 13.02L35.80 6.02L39.13 6.02L39.69 9.37L39.90 10.95L39.96 10.95L40.24 9.35L40.94 6.02L44.10 6.02L44.81 9.39L45.08 10.95L45.14 10.95L45.35 9.38L45.91 6.02L49.24 6.02ZM52.88 3.22L52.88 10.23L52.88 10.23Q52.88 10.67 53.00 10.86L53.00 10.86L53.00 10.86Q53.13 11.05 53.45 11.05L53.45 11.05L53.45 11.05Q53.70 11.05 53.96 10.98L53.96 10.98L53.82 12.71L53.82 12.71Q53.56 12.91 53.06 13.03L53.06 13.03L53.06 13.03Q52.56 13.16 52.08 13.16L52.08 13.16L52.08 13.16Q50.78 13.16 50.22 12.60L50.22 12.60L50.22 12.60Q49.66 12.04 49.66 10.72L49.66 10.72L49.66 3.22L52.88 3.22ZM61.94 11.30L61.94 11.30Q62.17 11.30 62.29 11.24L62.29 11.24L62.03 12.88L62.03 12.88Q61.56 13.16 61.00 13.16L61.00 13.16L61.00 13.16Q60.14 13.16 59.57 12.86L59.57 12.86L59.57 12.86Q59.00 12.56 58.80 11.98L58.80 11.98L58.80 11.98Q58.48 12.53 57.86 12.84L57.86 12.84L57.86 12.84Q57.23 13.16 56.31 13.16L56.31 13.16L56.31 13.16Q55.22 13.16 54.68 12.73L54.68 12.73L54.68 12.73Q54.15 12.31 54.15 11.49L54.15 11.49L54.15 11.49Q54.15 10.61 54.78 10.09L54.78 10.09L54.78 10.09Q55.41 9.56 56.88 9.24L56.88 9.24L58.27 8.93L58.27 8.65L58.27 8.65Q58.27 8.33 58.11 8.15L58.11 8.15L58.11 8.15Q57.95 7.97 57.64 7.97L57.64 7.97L57.64 7.97Q57.30 7.97 57.11 8.15L57.11 8.15L57.11 8.15Q56.91 8.34 56.90 8.82L56.90 8.82L54.24 8.41L54.24 8.41Q54.35 7.21 55.24 6.54L55.24 6.54L55.24 6.54Q56.14 5.88 57.82 5.88L57.82 5.88L57.82 5.88Q59.68 5.88 60.57 6.59L60.57 6.59L60.57 6.59Q61.46 7.31 61.46 8.76L61.46 8.76L61.46 10.72L61.46 10.72Q61.46 11.30 61.94 11.30L61.94 11.30ZM57.67 11.41L57.67 11.41Q57.93 11.41 58.10 11.23L58.10 11.23L58.10 11.23Q58.27 11.06 58.27 10.72L58.27 10.72L58.27 10.05L57.81 10.19L57.81 10.19Q57.51 10.28 57.34 10.46L57.34 10.46L57.34 10.46Q57.18 10.65 57.18 10.92L57.18 10.92L57.18 10.92Q57.18 11.16 57.32 11.28L57.32 11.28L57.32 11.28Q57.46 11.41 57.67 11.41L57.67 11.41Z"></path></g><defs data-v-29081953=""><linearGradient data-v-29081953="" gradientTransform="rotate(25)" id="b1d6a862-4b85-42c8-8478-b7b18da2e347" x1="0%" y1="0%" x2="100%" y2="0%"><stop data-v-29081953="" offset="0%" stop-color="#49247E" stop-opacity="1"></stop><stop data-v-29081953="" offset="100%" stop-color="#AA49C7" stop-opacity="1"></stop></linearGradient></defs><g data-v-29081953="" id="5f63a7ef-8248-40bb-b53e-e757e65c64b2" stroke="none" fill="url(#b1d6a862-4b85-42c8-8478-b7b18da2e347)" transform="matrix(0.4674214623434448,0,0,0.4674214623434448,40,130.60200931274704)"><path d="M99.981 2.312A2.492 2.492 0 0 0 97.5 0h-95A2.492 2.492 0 0 0 .019 2.312L0 66.5A2.5 2.5 0 0 0 2.5 69h95a2.5 2.5 0 0 0 2.5-2.5l-.019-64.188zM96 57H4V4h92v53zM66 81c-4-1-5-4-5-8v-1H39v1c0 4-1 7-5 8-.97.242-1 2 0 2h32c1 0 .97-1.758 0-2z"></path></g><!----></svg>